<mxfile host="app.diagrams.net" modified="2024-05-27T08:32:01.714Z" agent="Mozilla/5.0 (Windows NT 10.0; Win64; x64) AppleWebKit/537.36 (KHTML, like Gecko) Chrome/125.0.0.0 Safari/537.36" version="24.4.8" etag="ouE7S0X9xAU3d401IrF3" type="github">
  <diagram name="Page-1" id="4JyUe8qU9VFgm5eZjIYm">
    <mxGraphModel>
      <root>
        <mxCell id="0" />
        <mxCell id="1" parent="0" />
      </root>
    </mxGraphModel>
  </diagram>
</mxfile>
